<?xml version="1.0" encoding="UTF-8"?>
<svg id="_레이어_2" xmlns="http://www.w3.org/2000/svg" version="1.1" viewBox="0 0 170.3 24.4">
  <!-- Generator: Adobe Illustrator 30.3.0, SVG Export Plug-In . SVG Version: 2.1.3 Build 182)  -->
  <defs>
    <style>
      .st0 {
        isolation: isolate;
      }

      .st1 {
        fill: #231815;
      }
    </style>
  </defs>
  <g id="_레이어_1-2">
    <g class="st0">
      <g class="st0">
        <path class="st1" d="M3.2,13.7c-.1,1.6-.2,3.3-.4,4.9-.2,0-.4,0-.5,0h-1c-.2,0-.3,0-.5,0,.5-2.5.9-5,1.3-7.5.4-2.5.7-5,1-7.6.2,0,.3,0,.5,0,.1,0,.3,0,.5,0s.3,0,.4,0c.1,0,.3,0,.5,0,.4.9.8,1.8,1.2,2.7s.9,1.8,1.3,2.7.9,1.8,1.3,2.7c.4.9.8,1.7,1.2,2.5.9-1.6,1.8-3.4,2.6-5.2s1.7-3.6,2.5-5.4c.4,0,.7.1.9.1s.6,0,.9-.1c.1,1.3.3,2.6.5,4.1.2,1.5.3,2.9.5,4.3.2,1.4.3,2.7.5,3.9.2,1.2.3,2.2.4,2.9-.3,0-.6,0-.9,0h-1.8c-.3,0-.6,0-.9,0,0-1.5-.2-3.1-.4-4.9-.2-1.8-.3-3.5-.5-5.2h0c-.8,1.7-1.7,3.4-2.5,5.1s-1.6,3.4-2.4,5c0,0-.1,0-.2,0,0,0-.1,0-.2,0s-.1,0-.2,0c0,0-.1,0-.2,0-.8-1.6-1.6-3.3-2.4-4.9s-1.6-3.3-2.4-5h0c-.2,1.7-.4,3.4-.5,5Z"/>
        <path class="st1" d="M33,18.6c-.4,0-.7,0-1,0h-1.9c-.3,0-.6,0-.9,0-.2-.7-.5-1.5-.7-2.2-.2-.7-.5-1.5-.8-2.2-.5,0-.9,0-1.4,0-.5,0-.9,0-1.4,0s-.8,0-1.1,0c-.4,0-.8,0-1.1,0-.3.7-.6,1.5-.8,2.2-.2.7-.5,1.5-.7,2.2-.2,0-.3,0-.5,0h-1c-.2,0-.4,0-.6,0,.2-.4.4-.9.7-1.6.3-.7.6-1.4,1-2.3s.7-1.8,1.1-2.7c.4-1,.8-2,1.2-3,.4-1,.8-2,1.2-2.9.4-1,.7-1.9,1.1-2.7.1,0,.3,0,.4,0,.1,0,.3,0,.4,0s.3,0,.4,0c.1,0,.3,0,.4,0,.5,1.2,1,2.6,1.5,4s1.1,2.8,1.6,4.2c.5,1.4,1.1,2.7,1.6,3.9.5,1.2,1,2.3,1.4,3.1ZM25.3,7.6c-.4.9-.7,1.7-1.1,2.6-.3.9-.7,1.7-1,2.6h4c-.3-.9-.6-1.8-1-2.6-.3-.9-.6-1.7-1-2.6Z"/>
        <path class="st1" d="M38.3,4.5c-.7,0-1.2.2-1.6.6-.4.4-.6.9-.6,1.4s.2,1,.5,1.3.7.7,1.2.9c.5.3,1,.5,1.6.8.6.3,1.1.6,1.6.9.5.4.9.8,1.2,1.4s.5,1.2.5,2.1-.1,1.4-.4,2c-.3.6-.7,1.1-1.2,1.6-.5.4-1.1.8-1.8,1-.7.2-1.5.3-2.4.3s-1.5,0-2.1-.3c-.6-.2-1.1-.4-1.4-.6.1-.5.3-1,.4-1.4.1-.4.2-.9.3-1.4h.4c0,.3.2.6.3.9.2.3.4.5.6.8s.6.4.9.5c.4.1.7.2,1.2.2.9,0,1.5-.2,1.9-.7.4-.4.6-1,.6-1.6s-.2-1-.5-1.4c-.3-.4-.7-.7-1.2-.9-.5-.3-1-.5-1.6-.8-.6-.3-1.1-.6-1.6-.9-.5-.4-.9-.8-1.2-1.4-.3-.5-.5-1.2-.5-2.1s.1-1.4.4-2c.3-.6.6-1.1,1.1-1.5.5-.4,1-.7,1.6-.9.6-.2,1.2-.3,1.9-.3s1.5,0,2.1.3c.6.2,1.1.5,1.5.8-.1.3-.2.7-.3,1,0,.3-.2.7-.4,1.2h-.3c-.5-1.3-1.4-1.9-2.7-1.9Z"/>
        <path class="st1" d="M47.1,5.9c0-.4,0-.6,0-.8-.2,0-.5,0-.8,0-.3,0-.7,0-1,0-.4,0-.7,0-1.1,0-.4,0-.7,0-1.1.1,0-.2,0-.3,0-.5,0-.2,0-.3,0-.5s0-.3,0-.5,0-.3,0-.5c.5,0,.9,0,1.4,0,.4,0,.8,0,1.2,0,.4,0,.9,0,1.4,0,.5,0,1.1,0,1.8,0s1.3,0,1.8,0c.5,0,.9,0,1.4,0,.4,0,.8,0,1.2,0,.4,0,.8,0,1.3,0,0,.2,0,.3,0,.5s0,.3,0,.5,0,.3,0,.5c0,.2,0,.3,0,.5-.3,0-.6,0-1-.1-.4,0-.7,0-1.1,0-.4,0-.7,0-1,0-.3,0-.6,0-.8,0,0,0,0,.2,0,.3s0,.3,0,.5v6.7c0,1.2,0,2.3,0,3.2,0,.9,0,1.9.1,2.8-.2,0-.5,0-.8,0h-2c-.3,0-.6,0-.8,0,0-.9.1-1.8.1-2.8,0-.9,0-2,0-3.2v-5.5c0-.4,0-.8,0-1.2Z"/>
        <path class="st1" d="M55.7,6.3c0-.9,0-1.9-.1-2.8.7,0,1.3,0,2,0,.6,0,1.3,0,2,0,1.1,0,2,0,2.9,0,.8,0,1.4,0,1.7,0,0,.2,0,.5,0,.9s0,.4,0,.6c0,.1,0,.3,0,.4-.4,0-.9,0-1.4,0-.5,0-1,0-1.5,0-.5,0-.9,0-1.3,0-.4,0-.7,0-.8,0,0,.8,0,1.6,0,2.4s0,1.6,0,2.4c1,0,1.8,0,2.6,0,.8,0,1.6,0,2.4-.1,0,.2,0,.4,0,.6,0,.1,0,.3,0,.4s0,.2,0,.4c0,.1,0,.3,0,.5-1.7-.1-3.3-.2-5-.2,0,.5,0,.9,0,1.4,0,.5,0,.9,0,1.4,0,1,0,1.9,0,2.8.8,0,1.7,0,2.5,0,.8,0,1.7-.1,2.5-.2,0,.2,0,.3,0,.4,0,.1,0,.3,0,.5s0,.4,0,.5c0,.1,0,.2,0,.3-.4,0-.9,0-1.5,0-.6,0-1.4,0-2.4,0h-3.5c-.3,0-.6,0-.7,0-.2,0-.3,0-.4,0,0-.9.1-1.8.1-2.8,0-.9,0-2,0-3.2v-3c0-1.2,0-2.3,0-3.2Z"/>
        <path class="st1" d="M69.3,11.7v.9c0,1.2,0,2.3,0,3.2,0,.9,0,1.9.1,2.8-.2,0-.5,0-.8,0h-2c-.3,0-.6,0-.8,0,0-.9.1-1.8.1-2.8,0-.9,0-2,0-3.2v-3c0-1.2,0-2.3,0-3.2,0-.9,0-1.9-.1-2.8.2,0,.5,0,.8,0,.3,0,.6,0,1,0s.8,0,1.4,0c.5,0,1.1,0,1.9,0s1,0,1.4,0c.4,0,.7,0,1,.1s.5.1.7.2c.2,0,.4.2.6.3.4.3.8.7,1,1.2.3.5.4,1,.4,1.7,0,1.1-.3,1.9-.9,2.6s-1.4,1.2-2.5,1.4c.7,1.2,1.5,2.5,2.3,3.7.8,1.2,1.6,2.5,2.4,3.7-.3,0-.7,0-1,0h-2c-.3,0-.7,0-1,0l-3.9-6.9h-.2ZM72.8,7.6c0-.6,0-1.2-.2-1.5-.1-.4-.3-.7-.6-.9-.3-.2-.6-.3-1.1-.4s-.9,0-1.6,0c0,2,0,4,0,6,0,0,.2,0,.3,0s.2,0,.2,0c1,0,1.7-.3,2.2-.8.5-.5.8-1.3.8-2.4Z"/>
        <path class="st1" d="M82.6,11.1c0-1.1.2-2.1.6-3.1.4-1,1-1.8,1.7-2.5.7-.7,1.6-1.3,2.7-1.7,1-.4,2.2-.6,3.5-.6s2.3.2,3.3.5c1,.3,1.9.8,2.6,1.5.7.6,1.3,1.5,1.8,2.5s.6,2.1.6,3.5-.2,2.1-.6,3.1-1,1.8-1.7,2.5c-.7.7-1.6,1.3-2.7,1.7-1,.4-2.2.6-3.4.6s-2.2-.1-3.3-.4c-1-.3-1.9-.7-2.7-1.4-.8-.6-1.4-1.5-1.8-2.4s-.7-2.2-.7-3.6ZM95.8,10.6c0-1-.1-1.8-.4-2.6-.2-.8-.6-1.4-1-1.9s-.9-.9-1.5-1.2c-.6-.3-1.2-.4-1.9-.4s-1.4.2-2,.5c-.6.4-1.1.8-1.5,1.5-.4.6-.7,1.3-.9,2.2-.2.8-.3,1.7-.3,2.7s.1,2.2.4,3c.2.8.6,1.5,1,1.9.4.5.9.8,1.5,1.1.6.2,1.1.3,1.8.3s1.3-.1,1.9-.4c.6-.3,1.1-.7,1.6-1.3s.8-1.3,1.1-2.2.4-1.9.4-3.1Z"/>
      </g>
      <g class="st0">
        <path class="st1" d="M101.3,9.6c0-1.2,0-2.3,0-3.2,0-.9,0-1.9-.1-2.8.2,0,.5,0,.8,0,.3,0,.6,0,1,0s1,0,1.6,0c.6,0,1.4,0,2.4,0s2.4.1,3.4.3c1,.2,1.9.6,2.7,1.2.7.5,1.3,1.3,1.7,2.2.4.9.6,2.1.6,3.5s-.2,2.3-.6,3.3c-.4,1-1,1.8-1.7,2.5-.7.7-1.5,1.2-2.4,1.6-.9.4-1.9.5-2.9.5s-2,0-2.8,0c-.8,0-1.5,0-2,0h-1c-.3,0-.6,0-.8,0,0-.9.1-1.8.1-2.8,0-.9,0-2,0-3.2v-3ZM104.5,14.2v1.3c0,.4,0,.8,0,1.2,0,.4,0,.6,0,.7.2,0,.5,0,.8,0s.7,0,1.1,0c1.7,0,3-.6,3.9-1.7,1-1.1,1.5-2.8,1.5-5.1s-.1-1.7-.4-2.4c-.2-.7-.6-1.3-1-1.8-.4-.5-1-.9-1.6-1.2-.6-.3-1.3-.4-2.1-.4s-1,0-1.3,0c-.3,0-.7,0-1,0,0,.1,0,.3,0,.7,0,.4,0,.7,0,1.2v7.5Z"/>
      </g>
      <g class="st0">
        <path class="st1" d="M122.6,8.6c.3-.5.6-1.1.9-1.7s.6-1.2.8-1.8.5-1.2.8-1.7c.2,0,.3,0,.5,0,.2,0,.3,0,.5,0s.3,0,.5,0c.2,0,.3,0,.5,0-.2.4-.6,1-.9,1.6-.4.7-.8,1.4-1.2,2.2-.4.8-.9,1.6-1.3,2.4-.4.8-.8,1.6-1.2,2.3,0,.4,0,.7,0,1.1s0,.7,0,1.1c0,.7,0,1.5,0,2.2,0,.7,0,1.5.2,2.3-.3,0-.6,0-.9,0h-1.9c-.3,0-.6,0-.9,0,0-.7,0-1.4.2-2.1,0-.7.1-1.4.1-2.1s0-.7,0-1,0-.7,0-1c-.4-.7-.8-1.6-1.3-2.5-.5-.9-.9-1.8-1.4-2.6-.4-.9-.9-1.6-1.2-2.3s-.6-1.2-.8-1.5c.3,0,.7,0,1,0,.3,0,.7,0,1,0s.7,0,1,0c.3,0,.6,0,1,0,.2.5.5,1.1.8,1.8.3.7.6,1.3.9,1.9.3.6.6,1.2.9,1.7.3.5.5.9.6,1.1h0c.3-.4.6-.9.9-1.4Z"/>
        <path class="st1" d="M132.3,4.5c-.7,0-1.2.2-1.7.6-.4.4-.6.9-.6,1.4s.2,1,.5,1.3.7.7,1.2.9c.5.3,1,.5,1.6.8.6.3,1.1.6,1.6.9.5.4.9.8,1.2,1.4s.5,1.2.5,2.1-.1,1.4-.4,2c-.3.6-.7,1.1-1.2,1.6-.5.4-1.1.8-1.8,1-.7.2-1.5.3-2.4.3s-1.5,0-2.1-.3c-.6-.2-1.1-.4-1.4-.6.1-.5.3-1,.4-1.4.1-.4.2-.9.3-1.4h.4c0,.3.2.6.3.9.2.3.4.5.6.8.2.2.6.4.9.5.4.1.7.2,1.2.2.9,0,1.5-.2,1.9-.7.4-.4.6-1,.6-1.6s-.2-1-.5-1.4c-.3-.4-.7-.7-1.2-.9-.5-.3-1-.5-1.6-.8-.6-.3-1.1-.6-1.6-.9-.5-.4-.9-.8-1.2-1.4-.3-.5-.5-1.2-.5-2.1s.1-1.4.4-2c.3-.6.6-1.1,1.1-1.5.5-.4,1-.7,1.6-.9.6-.2,1.2-.3,1.9-.3s1.5,0,2.1.3c.6.2,1.1.5,1.5.8-.1.3-.2.7-.3,1s-.2.7-.4,1.2h-.3c-.5-1.3-1.4-1.9-2.7-1.9Z"/>
        <path class="st1" d="M142.4,4.5c-.7,0-1.2.2-1.6.6-.4.4-.6.9-.6,1.4s.2,1,.5,1.3.7.7,1.2.9c.5.3,1,.5,1.6.8.6.3,1.1.6,1.6.9.5.4.9.8,1.2,1.4s.5,1.2.5,2.1-.1,1.4-.4,2c-.3.6-.7,1.1-1.2,1.6s-1.1.8-1.8,1c-.7.2-1.5.3-2.4.3s-1.5,0-2.1-.3c-.6-.2-1.1-.4-1.4-.6.1-.5.3-1,.4-1.4.1-.4.2-.9.3-1.4h.4c0,.3.2.6.3.9s.4.5.6.8c.2.2.5.4.9.5.4.1.7.2,1.2.2.9,0,1.5-.2,1.9-.7.4-.4.6-1,.6-1.6s-.2-1-.5-1.4c-.3-.4-.7-.7-1.2-.9s-1-.5-1.6-.8-1.1-.6-1.6-.9c-.5-.4-.9-.8-1.2-1.4s-.5-1.2-.5-2.1.1-1.4.4-2,.6-1.1,1.1-1.5c.5-.4,1-.7,1.6-.9s1.2-.3,1.9-.3,1.5,0,2.1.3c.6.2,1.1.5,1.5.8-.1.3-.2.7-.3,1,0,.3-.2.7-.4,1.2h-.3c-.5-1.3-1.4-1.9-2.7-1.9Z"/>
        <path class="st1" d="M148.4,6.3c0-.9,0-1.9-.1-2.8.7,0,1.3,0,2,0s1.3,0,2,0c1.1,0,2,0,2.9,0,.8,0,1.4,0,1.7,0,0,.2,0,.5,0,.9s0,.4,0,.6,0,.3,0,.4c-.4,0-.9,0-1.4,0s-1,0-1.5,0c-.5,0-.9,0-1.3,0-.4,0-.7,0-.8,0,0,.8,0,1.6,0,2.4,0,.8,0,1.6,0,2.4,1,0,1.8,0,2.6,0,.8,0,1.6,0,2.4-.1,0,.2,0,.4,0,.6,0,.1,0,.3,0,.4s0,.2,0,.4c0,.1,0,.3,0,.5-1.7-.1-3.3-.2-5-.2,0,.5,0,.9,0,1.4,0,.5,0,.9,0,1.4,0,1,0,1.9,0,2.8.8,0,1.7,0,2.5,0,.8,0,1.7-.1,2.5-.2,0,.2,0,.3,0,.4s0,.3,0,.5,0,.4,0,.5,0,.2,0,.3c-.4,0-.9,0-1.5,0-.6,0-1.4,0-2.4,0h-3.5c-.3,0-.6,0-.7,0-.2,0-.3,0-.4,0,0-.9.1-1.8.1-2.8,0-.9,0-2,0-3.2v-3c0-1.2,0-2.3,0-3.2Z"/>
        <path class="st1" d="M165.5,8.6c.3-.5.6-1.1.9-1.7s.6-1.2.8-1.8.5-1.2.8-1.7c.2,0,.3,0,.5,0,.2,0,.3,0,.5,0s.3,0,.5,0c.2,0,.3,0,.5,0-.2.4-.6,1-.9,1.6-.4.7-.8,1.4-1.2,2.2-.4.8-.9,1.6-1.3,2.4-.4.8-.8,1.6-1.2,2.3,0,.4,0,.7,0,1.1s0,.7,0,1.1c0,.7,0,1.5,0,2.2,0,.7,0,1.5.2,2.3-.3,0-.6,0-.9,0h-1.9c-.3,0-.6,0-.9,0,0-.7,0-1.4.2-2.1,0-.7.1-1.4.1-2.1s0-.7,0-1,0-.7,0-1c-.4-.7-.8-1.6-1.3-2.5-.5-.9-.9-1.8-1.4-2.6-.4-.9-.9-1.6-1.2-2.3s-.6-1.2-.8-1.5c.3,0,.7,0,1,0,.3,0,.7,0,1,0s.7,0,1,0c.3,0,.6,0,1,0,.2.5.5,1.1.8,1.8.3.7.6,1.3.9,1.9.3.6.6,1.2.9,1.7.3.5.5.9.6,1.1h0c.3-.4.6-.9.9-1.4Z"/>
      </g>
    </g>
  </g>
</svg>