<?xml version="1.0" encoding="UTF-8"?>
<svg id="_레이어_2" data-name="레이어 2" xmlns="http://www.w3.org/2000/svg" viewBox="0 0 411.08 71.43">
  <defs>
    <style>
      .cls-1 {
        fill: #111;
      }
    </style>
  </defs>
  <g id="_레이어_1-2" data-name="레이어 1">
    <g>
      <path class="cls-1" d="M19.13,4.52c1.29-.08,2.59-.14,3.88-.17.22,0,.41,0,.62,0,2.94-.1,6.37-.13,10.19-.02.86,0,1.7,0,2.62.03,1.3.03,2.59.08,3.88.17,1.3.08,2.54.18,3.75.29,1.2.11,2.28.25,3.24.41-.23-1-.34-1.85-.34-2.57,0-.66.11-1.54.34-2.65-3,.11-5.93.21-8.79.29-2.86.08-5.79.12-8.79.12s-5.93-.04-8.79-.12c-2.86-.08-5.79-.18-8.79-.29.23,1.11.34,1.96.34,2.57,0,.77-.11,1.66-.34,2.65.95-.17,2.03-.3,3.24-.41,1.2-.11,2.45-.21,3.75-.29Z"/>
      <path class="cls-1" d="M0,43.25c0-4.5.73-8.51,2.18-12.03,1.46-3.52,3.49-6.5,6.11-8.93,2.62-2.43,5.76-4.29,9.41-5.56,3.65-1.27,7.65-1.91,11.99-1.91s8.42.64,12.07,1.91c3.65,1.27,6.79,3.12,9.41,5.56,2.62,2.44,4.66,5.41,6.11,8.93,1.46,3.52,2.18,7.53,2.18,12.03s-.73,8.51-2.18,12.03c-1.46,3.52-3.49,6.5-6.11,8.93-2.62,2.44-5.76,4.25-9.41,5.44-3.65,1.19-7.68,1.79-12.07,1.79s-8.34-.59-11.99-1.79c-3.65-1.19-6.79-3-9.41-5.44-2.62-2.43-4.66-5.41-6.11-8.93-1.46-3.52-2.18-7.53-2.18-12.03ZM51.68,43.25c0-4.39-.56-8.19-1.67-11.39-1.11-3.2-2.66-5.85-4.64-7.94-1.98-2.09-4.31-3.64-6.99-4.64-2.67-1-5.57-1.51-8.69-1.51s-5.94.5-8.61,1.51c-2.67,1.01-5,2.55-6.99,4.64s-3.53,4.74-4.64,7.94c-1.11,3.2-1.67,7-1.67,11.39s.56,8.19,1.67,11.39c1.11,3.2,2.66,5.85,4.64,7.94,1.98,2.09,4.31,3.64,6.99,4.64,2.67,1.01,5.54,1.51,8.61,1.51s6.02-.5,8.69-1.51c2.67-1,5-2.55,6.99-4.64,1.98-2.09,3.53-4.74,4.64-7.94,1.11-3.2,1.67-7,1.67-11.39Z"/>
      <path class="cls-1" d="M95.82,49.8c-6.88-7.38-13.76-14.73-20.64-22.03-.05,1.48-.11,3.47-.16,5.96-.05,2.49-.08,5.87-.08,10.16,0,1.11.01,2.49.04,4.13.03,1.64.05,3.36.08,5.16.03,1.8.07,3.63.12,5.48.05,1.85.11,3.57.16,5.16.05,1.59.11,2.98.16,4.17.05,1.19.11,2,.16,2.42-.85-.11-1.77-.16-2.78-.16-1.06,0-2.04.05-2.94.16.11-.53.22-1.51.36-2.94.13-1.43.25-3.14.36-5.12.11-1.98.22-4.14.36-6.47.13-2.33.24-4.66.32-6.99.08-2.33.15-4.6.2-6.83.05-2.22.08-4.21.08-5.95,0-5.08-.01-9.45-.04-13.1-.03-3.65-.09-6.38-.2-8.18h1.27c3.23,3.49,6.68,7.24,10.36,11.23,3.68,4,7.33,7.94,10.96,11.83,3.62,3.89,7.07,7.57,10.32,11.04,3.25,3.47,6.1,6.42,8.53,8.85v-10.8c0-5.56-.04-10.97-.12-16.24-.08-5.27-.25-10.23-.52-14.89,1.06.27,1.96.4,2.7.4.64,0,1.48-.13,2.54-.4-.11,1.17-.23,2.91-.36,5.24-.13,2.33-.27,4.82-.4,7.46-.13,2.65-.25,5.24-.36,7.78-.11,2.54-.16,4.58-.16,6.11v4.76c0,1.8.01,3.68.04,5.64.03,1.96.05,3.93.08,5.92.03,1.98.05,3.84.08,5.56.03,1.72.04,3.22.04,4.49v2.62h-1.11c-6.09-7.04-12.57-14.25-19.45-21.63Z"/>
      <path class="cls-1" d="M159.34,19.99c-1.38,0-2.82.01-4.33.04-1.51.03-3.02.08-4.52.16-1.51.08-2.96.17-4.37.28-1.4.11-2.66.24-3.77.4.26-.95.4-1.8.4-2.54,0-.58-.13-1.4-.4-2.46,3.49.11,6.91.2,10.24.28,3.33.08,6.75.12,10.24.12s6.91-.04,10.24-.12c3.33-.08,6.75-.17,10.24-.28-.27,1.06-.4,1.91-.4,2.54,0,.69.13,1.51.4,2.46-1.11-.16-2.37-.29-3.77-.4-1.4-.11-2.86-.2-4.37-.28-1.51-.08-3.02-.13-4.53-.16-1.51-.03-2.95-.04-4.33-.04-.16,5.45-.24,10.93-.24,16.43v13.66c0,3.49.07,6.93.2,10.32.13,3.39.28,6.72.44,10-1.22-.11-2.51-.16-3.89-.16s-2.67.05-3.89.16c.16-3.28.3-6.62.44-10,.13-3.39.2-6.83.2-10.32v-13.66c0-5.5-.08-10.98-.24-16.43Z"/>
      <path class="cls-1" d="M192.68,36.42c0-3.49-.07-6.92-.2-10.28-.13-3.36-.28-6.79-.44-10.28,1.53.11,3.04.2,4.53.28,1.48.08,2.99.12,4.53.12s3.04-.07,4.53-.2c1.48-.13,2.99-.2,4.52-.2,2.22,0,4.34.21,6.35.63,2.01.42,3.77,1.13,5.28,2.1,1.51.98,2.7,2.26,3.57,3.85.87,1.59,1.31,3.57,1.31,5.95,0,2.54-.57,4.72-1.71,6.55-1.14,1.83-2.53,3.33-4.17,4.53-1.64,1.19-3.4,2.12-5.28,2.78-1.88.66-3.59,1.1-5.12,1.31.64.79,1.51,1.91,2.62,3.33,1.11,1.43,2.35,3,3.73,4.72,1.38,1.72,2.8,3.52,4.29,5.4,1.48,1.88,2.91,3.68,4.29,5.4,1.38,1.72,2.67,3.29,3.89,4.72,1.22,1.43,2.2,2.51,2.94,3.26-.79-.11-1.59-.16-2.38-.16h-4.68c-.79,0-1.56.05-2.3.16-.79-1.11-2-2.78-3.61-5-1.62-2.22-3.4-4.6-5.36-7.15-1.96-2.54-3.96-5.07-5.99-7.58-2.04-2.51-3.9-4.64-5.6-6.39h-3.02v5.8c0,3.49.07,6.93.2,10.32.13,3.39.28,6.72.44,10-1.22-.11-2.51-.16-3.89-.16s-2.67.05-3.89.16c.16-3.28.3-6.62.44-10,.13-3.39.2-6.83.2-10.32v-13.66ZM199.19,40.95c.74.16,1.55.26,2.42.32.87.05,1.84.08,2.9.08,1.64,0,3.35-.18,5.12-.56,1.77-.37,3.4-1.02,4.88-1.95,1.48-.92,2.71-2.17,3.69-3.73.98-1.56,1.47-3.53,1.47-5.91,0-2.06-.38-3.77-1.15-5.12-.77-1.35-1.76-2.42-2.98-3.21-1.22-.79-2.54-1.34-3.97-1.63-1.43-.29-2.83-.44-4.21-.44-1.85,0-3.39.04-4.6.12-1.22.08-2.25.17-3.1.28-.11,2.91-.21,5.8-.32,8.65-.11,2.86-.16,5.72-.16,8.57v4.53Z"/>
      <path class="cls-1" d="M305.5,70.4c-1.22-3.12-2.7-6.88-4.45-11.27-1.75-4.39-3.61-9.02-5.6-13.89-1.98-4.87-4.02-9.84-6.11-14.93-2.09-5.08-4.09-9.9-5.99-14.45.74.11,1.46.2,2.14.28.69.08,1.35.12,1.98.12s1.3-.04,1.98-.12c.69-.08,1.4-.17,2.14-.28,1.16,3.49,2.45,7.16,3.85,11,1.4,3.84,2.88,7.74,4.45,11.71,1.56,3.97,3.16,7.99,4.8,12.07,1.64,4.08,3.31,8.12,5,12.15.95-2.17,1.98-4.59,3.1-7.26s2.24-5.45,3.37-8.34c1.14-2.88,2.26-5.82,3.37-8.81,1.11-2.99,2.18-5.86,3.22-8.61,1.03-2.75,1.97-5.32,2.82-7.7.85-2.38,1.56-4.45,2.14-6.19,1.16.27,2.14.4,2.94.4s1.77-.13,2.94-.4c-4.13,9.21-8.1,18.34-11.91,27.39-3.81,9.05-7.46,18.1-10.96,27.15-.85-.11-1.72-.16-2.62-.16-1.06,0-1.93.05-2.62.16Z"/>
      <path class="cls-1" d="M342.53,26.02c-.13-3.39-.28-6.77-.44-10.16,2.38.11,4.75.2,7.11.28,2.35.08,4.72.12,7.11.12s4.74-.04,7.07-.12c2.33-.08,4.68-.17,7.07-.28-.16.79-.24,1.59-.24,2.38s.08,1.59.24,2.38c-1.69-.11-3.24-.21-4.64-.32-1.4-.11-2.89-.21-4.45-.32-1.56-.11-3.27-.2-5.12-.28-1.85-.08-4.08-.12-6.67-.12-.05,1.69-.12,3.31-.2,4.84-.08,1.54-.12,3.28-.12,5.24,0,2.06.01,4.08.04,6.03.03,1.96.04,3.44.04,4.45,2.33,0,4.42-.03,6.27-.08,1.85-.05,3.55-.12,5.08-.2,1.53-.08,2.95-.16,4.25-.24,1.3-.08,2.53-.17,3.69-.28-.16.79-.24,1.62-.24,2.46,0,.79.08,1.59.24,2.38-1.38-.16-2.98-.29-4.8-.4-1.83-.11-3.65-.17-5.48-.2-1.83-.03-3.55-.05-5.16-.08-1.62-.03-2.9-.04-3.85-.04,0,.48-.01.99-.04,1.55-.03.56-.04,1.26-.04,2.1v7.86c0,3.02.01,5.5.04,7.46.03,1.96.07,3.44.12,4.45h5.56c2.01,0,3.98-.04,5.91-.12,1.93-.08,3.76-.19,5.48-.32,1.72-.13,3.22-.33,4.49-.59-.11.37-.17.78-.2,1.23-.03.45-.04.86-.04,1.23,0,.85.08,1.54.24,2.06-2.38-.11-4.75-.16-7.11-.16h-14.41c-2.38,0-4.79.05-7.22.16.16-3.39.3-6.76.44-10.12.13-3.36.2-6.79.2-10.28v-13.66c0-3.49-.07-6.93-.2-10.32Z"/>
      <path class="cls-1" d="M382.23,26.14c-.13-3.36-.28-6.79-.44-10.28.69.11,1.35.2,1.98.28.64.08,1.27.12,1.91.12s1.27-.04,1.91-.12c.63-.08,1.3-.17,1.98-.28-.16,3.49-.31,6.92-.44,10.28-.13,3.36-.2,6.79-.2,10.28,0,6.67.03,12.45.08,17.35.05,4.9.11,9.28.16,13.14,3.76,0,7.36-.04,10.8-.12,3.44-.08,7.15-.38,11.11-.91-.27.95-.4,1.75-.4,2.38,0,.58.13,1.3.4,2.14-2.44-.11-4.87-.16-7.3-.16h-14.65c-2.36,0-4.8.05-7.34.16.16-3.28.3-6.62.44-10,.13-3.39.2-6.83.2-10.32v-13.66c0-3.49-.07-6.92-.2-10.28Z"/>
      <path class="cls-1" d="M283.16,64.85c-1.09-2.43-2.3-5.2-3.65-8.3-1.35-3.1-2.79-6.44-4.33-10.04-1.54-3.6-3.07-7.22-4.6-10.88-1.54-3.65-3.04-7.26-4.52-10.84-1.48-3.57-2.86-6.89-4.13-9.96h-1.51c-4.13,9.47-8.23,18.79-12.31,27.95-4.08,9.16-8.26,18.37-12.54,27.63.9-.11,1.88-.16,2.94-.16s2.04.05,2.94.16c.69-2.43,1.72-5.52,3.1-9.25,1.38-3.73,14.77-35.61,14.77-35.61,0,0,11.35,27.4,12.15,29.33.79,1.93,1.57,3.84,2.34,5.72.77,1.88,1.47,3.68,2.1,5.4s1.14,3.19,1.51,4.41c.74-.11,1.44-.16,2.1-.16h4.21c.66,0,1.36.05,2.1.16-.69-1.27-1.58-3.12-2.66-5.56Z"/>
    </g>
  </g>
</svg>